<svg xmlns="http://www.w3.org/2000/svg" xmlns:xlink="http://www.w3.org/1999/xlink" viewBox="0 0 361.84 800.03"><defs><style>.cls-1{isolation:isolate;}.cls-2{mix-blend-mode:color-dodge;}.cls-3{fill:url(#New_Gradient_Swatch_4);}.cls-4{fill:url(#New_Gradient_Swatch_4-2);}.cls-5{fill:url(#New_Gradient_Swatch_4-3);}.cls-6{fill:url(#New_Gradient_Swatch_4-4);}.cls-7{fill:url(#New_Gradient_Swatch_4-5);}.cls-8{fill:url(#New_Gradient_Swatch_4-6);}.cls-9{fill:url(#New_Gradient_Swatch_4-7);}.cls-10{fill:url(#New_Gradient_Swatch_4-8);}.cls-11{fill:url(#New_Gradient_Swatch_4-9);}.cls-12{fill:url(#New_Gradient_Swatch_4-10);}.cls-13{fill:url(#New_Gradient_Swatch_4-11);}.cls-14{fill:url(#New_Gradient_Swatch_4-12);}.cls-15{fill:url(#New_Gradient_Swatch_4-13);}.cls-16{fill:url(#New_Gradient_Swatch_4-14);}.cls-17{fill:url(#New_Gradient_Swatch_4-15);}.cls-18{fill:url(#New_Gradient_Swatch_4-16);}.cls-19{fill:url(#New_Gradient_Swatch_4-17);}.cls-20{fill:url(#New_Gradient_Swatch_4-18);}.cls-21{fill:url(#New_Gradient_Swatch_4-19);}.cls-22{fill:url(#New_Gradient_Swatch_4-20);}.cls-23{fill:url(#New_Gradient_Swatch_4-21);}.cls-24{fill:url(#New_Gradient_Swatch_4-22);}.cls-25{fill:url(#New_Gradient_Swatch_4-23);}.cls-26{fill:url(#New_Gradient_Swatch_4-24);}.cls-27{fill:url(#New_Gradient_Swatch_4-25);}.cls-28{fill:url(#New_Gradient_Swatch_4-26);}.cls-29{fill:url(#New_Gradient_Swatch_4-27);}.cls-30{fill:url(#New_Gradient_Swatch_4-28);}.cls-31{fill:url(#New_Gradient_Swatch_4-29);}.cls-32{fill:url(#New_Gradient_Swatch_4-30);}.cls-33{fill:url(#New_Gradient_Swatch_4-31);}.cls-34{fill:url(#New_Gradient_Swatch_4-32);}.cls-35{fill:url(#New_Gradient_Swatch_4-33);}.cls-36{fill:url(#New_Gradient_Swatch_4-34);}.cls-37{fill:url(#New_Gradient_Swatch_4-35);}.cls-38{fill:url(#New_Gradient_Swatch_4-36);}.cls-39{fill:url(#New_Gradient_Swatch_4-37);}.cls-40{fill:url(#New_Gradient_Swatch_4-38);}.cls-41{fill:url(#New_Gradient_Swatch_4-39);}.cls-42{fill:url(#New_Gradient_Swatch_4-40);}.cls-43{fill:url(#New_Gradient_Swatch_4-41);}.cls-44{fill:url(#New_Gradient_Swatch_4-42);}.cls-45{fill:url(#New_Gradient_Swatch_4-43);}.cls-46{fill:url(#New_Gradient_Swatch_4-44);}.cls-47{fill:url(#New_Gradient_Swatch_4-45);}.cls-48{fill:url(#New_Gradient_Swatch_4-46);}.cls-49{fill:url(#New_Gradient_Swatch_4-47);}.cls-50{fill:url(#New_Gradient_Swatch_4-48);}.cls-51{fill:url(#New_Gradient_Swatch_4-49);}.cls-52{fill:url(#New_Gradient_Swatch_4-50);}.cls-53{fill:url(#New_Gradient_Swatch_4-51);}.cls-54{fill:url(#New_Gradient_Swatch_4-52);}</style><radialGradient id="New_Gradient_Swatch_4" cx="-655.22" cy="3269.64" r="4.7" gradientTransform="matrix(0.37, 0.97, -0.93, 0.36, 3302.76, -528.58)" gradientUnits="userSpaceOnUse"><stop offset="0" stop-color="#fff"/><stop offset="1"/></radialGradient><radialGradient id="New_Gradient_Swatch_4-2" cx="-655.09" cy="3269.6" r="4.68" xlink:href="#New_Gradient_Swatch_4"/><radialGradient id="New_Gradient_Swatch_4-3" cx="-614.16" cy="3250.78" r="2.6" xlink:href="#New_Gradient_Swatch_4"/><radialGradient id="New_Gradient_Swatch_4-4" cx="-614.17" cy="3250.78" r="2.58" xlink:href="#New_Gradient_Swatch_4"/><radialGradient id="New_Gradient_Swatch_4-5" cx="-600.5" cy="3204.61" r="10.52" xlink:href="#New_Gradient_Swatch_4"/><radialGradient id="New_Gradient_Swatch_4-6" cx="-600.5" cy="3204.55" r="10.48" xlink:href="#New_Gradient_Swatch_4"/><radialGradient id="New_Gradient_Swatch_4-7" cx="-541.69" cy="3253.01" r="9.73" xlink:href="#New_Gradient_Swatch_4"/><radialGradient id="New_Gradient_Swatch_4-8" cx="-541.79" cy="3253.04" r="9.73" xlink:href="#New_Gradient_Swatch_4"/><radialGradient id="New_Gradient_Swatch_4-9" cx="-464.12" cy="3273.33" r="10.82" xlink:href="#New_Gradient_Swatch_4"/><radialGradient id="New_Gradient_Swatch_4-10" cx="-464.01" cy="3273.26" r="10.85" xlink:href="#New_Gradient_Swatch_4"/><radialGradient id="New_Gradient_Swatch_4-11" cx="-391.38" cy="3261.45" r="9.66" xlink:href="#New_Gradient_Swatch_4"/><radialGradient id="New_Gradient_Swatch_4-12" cx="-391.41" cy="3261.52" r="9.67" xlink:href="#New_Gradient_Swatch_4"/><radialGradient id="New_Gradient_Swatch_4-13" cx="-335.08" cy="3234.65" r="8.2" xlink:href="#New_Gradient_Swatch_4"/><radialGradient id="New_Gradient_Swatch_4-14" cx="-334.99" cy="3234.59" r="8.22" xlink:href="#New_Gradient_Swatch_4"/><radialGradient id="New_Gradient_Swatch_4-15" cx="-302.56" cy="3296.1" r="2.8" xlink:href="#New_Gradient_Swatch_4"/><radialGradient id="New_Gradient_Swatch_4-16" cx="-302.51" cy="3296.12" r="2.81" xlink:href="#New_Gradient_Swatch_4"/><radialGradient id="New_Gradient_Swatch_4-17" cx="-192.58" cy="3260.46" r="10.47" xlink:href="#New_Gradient_Swatch_4"/><radialGradient id="New_Gradient_Swatch_4-18" cx="-192.58" cy="3260.43" r="10.51" xlink:href="#New_Gradient_Swatch_4"/><radialGradient id="New_Gradient_Swatch_4-19" cx="-264.06" cy="3328.84" r="11.26" xlink:href="#New_Gradient_Swatch_4"/><radialGradient id="New_Gradient_Swatch_4-20" cx="-263.95" cy="3328.78" r="11.29" xlink:href="#New_Gradient_Swatch_4"/><radialGradient id="New_Gradient_Swatch_4-21" cx="-208.33" cy="3294.62" r="7.37" xlink:href="#New_Gradient_Swatch_4"/><radialGradient id="New_Gradient_Swatch_4-22" cx="-208.32" cy="3294.67" r="7.4" xlink:href="#New_Gradient_Swatch_4"/><radialGradient id="New_Gradient_Swatch_4-23" cx="-208.48" cy="3335.77" r="8.8" xlink:href="#New_Gradient_Swatch_4"/><radialGradient id="New_Gradient_Swatch_4-24" cx="-208.51" cy="3335.73" r="8.8" xlink:href="#New_Gradient_Swatch_4"/><radialGradient id="New_Gradient_Swatch_4-25" cx="-286.2" cy="3297.96" r="6.42" xlink:href="#New_Gradient_Swatch_4"/><radialGradient id="New_Gradient_Swatch_4-26" cx="-286.14" cy="3298.02" r="6.4" xlink:href="#New_Gradient_Swatch_4"/><radialGradient id="New_Gradient_Swatch_4-27" cx="-231.68" cy="3344.47" r="7.04" xlink:href="#New_Gradient_Swatch_4"/><radialGradient id="New_Gradient_Swatch_4-28" cx="-231.72" cy="3344.54" r="7.05" xlink:href="#New_Gradient_Swatch_4"/><radialGradient id="New_Gradient_Swatch_4-29" cx="-246.7" cy="3297.88" r="6.1" xlink:href="#New_Gradient_Swatch_4"/><radialGradient id="New_Gradient_Swatch_4-30" cx="-246.68" cy="3297.97" r="6.22" xlink:href="#New_Gradient_Swatch_4"/><radialGradient id="New_Gradient_Swatch_4-31" cx="-265.76" cy="3253.22" r="10.8" xlink:href="#New_Gradient_Swatch_4"/><radialGradient id="New_Gradient_Swatch_4-32" cx="-265.9" cy="3253.18" r="10.84" xlink:href="#New_Gradient_Swatch_4"/><radialGradient id="New_Gradient_Swatch_4-33" cx="-267.62" cy="3228.82" r="8.32" xlink:href="#New_Gradient_Swatch_4"/><radialGradient id="New_Gradient_Swatch_4-34" cx="-267.7" cy="3228.86" r="8.27" xlink:href="#New_Gradient_Swatch_4"/><radialGradient id="New_Gradient_Swatch_4-35" cx="-213.79" cy="3225.58" r="11.99" xlink:href="#New_Gradient_Swatch_4"/><radialGradient id="New_Gradient_Swatch_4-36" cx="-213.77" cy="3225.59" r="11.94" xlink:href="#New_Gradient_Swatch_4"/><radialGradient id="New_Gradient_Swatch_4-37" cx="-184.5" cy="3216.76" r="8.67" xlink:href="#New_Gradient_Swatch_4"/><radialGradient id="New_Gradient_Swatch_4-38" cx="-184.52" cy="3216.77" r="8.7" xlink:href="#New_Gradient_Swatch_4"/><radialGradient id="New_Gradient_Swatch_4-39" cx="-138.57" cy="3237.61" r="6.4" xlink:href="#New_Gradient_Swatch_4"/><radialGradient id="New_Gradient_Swatch_4-40" cx="-138.57" cy="3237.56" r="6.42" xlink:href="#New_Gradient_Swatch_4"/><radialGradient id="New_Gradient_Swatch_4-41" cx="-69.49" cy="3280.51" r="7.19" xlink:href="#New_Gradient_Swatch_4"/><radialGradient id="New_Gradient_Swatch_4-42" cx="-69.42" cy="3280.5" r="7.19" xlink:href="#New_Gradient_Swatch_4"/><radialGradient id="New_Gradient_Swatch_4-43" cx="-58.02" cy="3183.12" r="8.42" xlink:href="#New_Gradient_Swatch_4"/><radialGradient id="New_Gradient_Swatch_4-44" cx="-58" cy="3183.14" r="8.41" xlink:href="#New_Gradient_Swatch_4"/><radialGradient id="New_Gradient_Swatch_4-45" cx="80.81" cy="3192.17" r="7.15" xlink:href="#New_Gradient_Swatch_4"/><radialGradient id="New_Gradient_Swatch_4-46" cx="80.69" cy="3192.14" r="7.23" xlink:href="#New_Gradient_Swatch_4"/><radialGradient id="New_Gradient_Swatch_4-47" cx="8.48" cy="3291.31" r="6.9" xlink:href="#New_Gradient_Swatch_4"/><radialGradient id="New_Gradient_Swatch_4-48" cx="8.43" cy="3291.23" r="6.93" xlink:href="#New_Gradient_Swatch_4"/><radialGradient id="New_Gradient_Swatch_4-49" cx="142.86" cy="3295.18" r="7.17" xlink:href="#New_Gradient_Swatch_4"/><radialGradient id="New_Gradient_Swatch_4-50" cx="142.76" cy="3295.2" r="7.13" xlink:href="#New_Gradient_Swatch_4"/><radialGradient id="New_Gradient_Swatch_4-51" cx="13.19" cy="3363.02" r="11.49" xlink:href="#New_Gradient_Swatch_4"/><radialGradient id="New_Gradient_Swatch_4-52" cx="13.22" cy="3363.04" r="11.53" xlink:href="#New_Gradient_Swatch_4"/></defs><title>star2</title><g class="cls-1"><g id="Layer_2" data-name="Layer 2"><g id="Layer_1-2" data-name="Layer 1"><g class="cls-2"><polygon class="cls-3" points="3.65 0 4.9 6.71 8.52 12.7 7.06 5.88 3.65 0"/><polygon class="cls-4" points="12.18 4.12 5.89 5.26 0 8.79 6.66 7.56 12.18 4.12"/><polygon class="cls-5" points="37.52 35.97 38.32 39.51 40.22 43.02 39.37 39.1 37.52 35.97"/><polygon class="cls-6" points="42.26 38.2 38.79 38.75 35.57 40.77 39.3 40.08 42.26 38.2"/><polygon class="cls-7" points="81.62 21.98 84.62 36.78 92.54 50.45 89.33 34.97 81.62 21.98"/><polygon class="cls-8" points="100.79 30.93 86.61 33.64 73.51 41.39 88.31 38.5 100.79 30.93"/><polygon class="cls-9" points="58.68 97.5 61.51 110.96 68.78 123.84 65.82 109.51 58.68 97.5"/><polygon class="cls-10" points="76.44 105.74 63.25 108.2 51.11 115.45 64.95 112.63 76.44 105.74"/><polygon class="cls-11" points="68.06 178.58 71.27 193.86 79.31 207.9 75.99 192.05 68.06 178.58"/><polygon class="cls-12" points="87.92 187.81 73.2 190.62 59.7 198.63 75.09 195.73 87.92 187.81"/><polygon class="cls-13" points="106.86 246.53 109.68 260.14 116.89 272.67 113.96 258.5 106.86 246.53"/><polygon class="cls-14" points="124.41 254.69 111.35 257.2 99.23 264.36 113.03 261.68 124.41 254.69"/><polygon class="cls-15" points="153.53 293.57 156.05 305.04 162.06 315.79 159.55 303.7 153.53 293.57"/><polygon class="cls-16" points="168.67 300.57 157.49 302.71 147.28 308.77 158.92 306.53 168.67 300.57"/><polygon class="cls-17" points="111.1 354.45 112.01 358.42 114.01 362.04 113.25 357.94 111.1 354.45"/><polygon class="cls-18" points="116.26 356.79 112.55 357.5 108.97 359.59 113.09 358.9 116.26 356.79"/><polygon class="cls-19" points="181.35 438.08 184.39 452.62 192.23 466.43 189.04 450.98 181.35 438.08"/><polygon class="cls-20" points="200.56 446.93 186.3 449.62 173.22 457.42 188.04 454.59 200.56 446.93"/><polygon class="cls-21" points="90.4 392.14 93.8 407.83 102.1 422.63 98.72 406.05 90.4 392.14"/><polygon class="cls-22" points="111.1 401.51 95.92 404.63 81.72 412.78 97.85 409.9 111.1 401.51"/><polygon class="cls-23" points="145.22 439.2 147.45 449.44 152.88 459.18 150.61 448.43 145.22 439.2"/><polygon class="cls-24" points="158.65 445.35 148.84 447.36 139.38 452.74 150.09 450.74 158.65 445.35"/><polygon class="cls-25" points="105.98 451.88 108.57 464.09 115.12 475.71 112.44 462.74 105.98 451.88"/><polygon class="cls-26" points="122.07 459.17 110.17 461.63 99.15 467.97 111.69 465.6 122.07 459.17"/><polygon class="cls-27" points="113.59 366.1 115.52 375.11 120.26 383.49 118.33 374.03 113.59 366.1"/><polygon class="cls-28" points="125.27 371.57 116.66 373.27 108.6 377.97 117.79 376.22 125.27 371.57"/><polygon class="cls-29" points="90.18 434.84 92.21 444.7 97.49 453.89 95.35 443.5 90.18 434.84"/><polygon class="cls-30" points="102.89 440.61 93.38 442.61 84.54 447.64 94.6 445.92 102.89 440.61"/><polygon class="cls-31" points="128.51 404.88 130.36 413.36 134.84 421.38 133.03 412.33 128.51 404.88"/><polygon class="cls-32" points="139.8 409.98 131.51 411.63 123.59 416.2 132.45 414.44 139.8 409.98"/><polygon class="cls-33" points="160.77 363.97 163.8 379.07 171.98 393.21 168.63 377.22 160.77 363.97"/><polygon class="cls-34" points="180.49 373.04 165.9 375.79 152.27 383.87 167.72 380.74 180.49 373.04"/><polygon class="cls-35" points="184.08 356.8 186.58 368.48 192.72 379.33 190.16 367.11 184.08 356.8"/><polygon class="cls-36" points="199.18 363.84 188.07 366.07 177.61 372.11 189.33 369.65 199.18 363.84"/><polygon class="cls-37" points="205.21 402.96 208.65 419.63 217.65 435.39 214.13 417.85 205.21 402.96"/><polygon class="cls-38" points="226.99 412.91 211.08 416.27 195.88 424.85 212.85 421.72 226.99 412.91"/><polygon class="cls-39" points="226.07 432.72 228.7 444.92 235.08 456.19 232.51 443.46 226.07 432.72"/><polygon class="cls-40" points="241.96 439.98 230.23 442.24 219.32 448.66 231.64 446.37 241.96 439.98"/><polygon class="cls-41" points="225.05 487.79 226.85 496.77 231.7 505.13 229.62 495.71 225.05 487.79"/><polygon class="cls-42" points="236.7 493.14 228.02 495 219.95 499.57 229.08 497.76 236.7 493.14"/><polygon class="cls-43" points="210.19 569.19 212.32 579.17 217.67 588.67 215.44 578.06 210.19 569.19"/><polygon class="cls-44" points="223.33 575.26 213.75 577.16 204.63 582.43 214.87 580.56 223.33 575.26"/><polygon class="cls-45" points="304.81 543.78 307.17 555.59 313.54 566.55 311 554.12 304.81 543.78"/><polygon class="cls-46" points="320.08 550.84 308.78 553.12 298.17 559.25 310.26 556.98 320.08 550.84"/><polygon class="cls-47" points="348.7 683.51 350.72 693.5 356.13 702.87 353.99 692.34 348.7 683.51"/><polygon class="cls-48" points="361.84 689.43 352.02 691.24 343.02 696.65 353.27 694.7 361.84 689.43"/><polygon class="cls-49" points="229.31 649.15 231.27 658.71 236.47 667.82 234.41 657.63 229.31 649.15"/><polygon class="cls-50" points="241.96 654.74 232.63 656.69 223.91 661.66 233.86 659.9 241.96 654.74"/><polygon class="cls-51" points="275.61 780.62 277.69 790.62 283.06 800.03 280.85 789.41 275.61 780.62"/><polygon class="cls-52" points="288.61 786.67 278.97 788.5 270.04 793.8 280.15 791.77 288.61 786.67"/><polygon class="cls-53" points="161.69 673.2 165.09 689.3 173.63 704.31 170.12 687.37 161.69 673.2"/><polygon class="cls-54" points="182.72 682.89 167.23 685.94 152.69 694.41 169.1 691.26 182.72 682.89"/></g></g></g></g></svg>