<svg xmlns="http://www.w3.org/2000/svg" xmlns:xlink="http://www.w3.org/1999/xlink" viewBox="0 0 788.78 356.64"><defs><style>.cls-1{isolation:isolate;}.cls-2{mix-blend-mode:color-dodge;}.cls-3{fill:url(#New_Gradient_Swatch_4);}.cls-4{fill:url(#New_Gradient_Swatch_4-2);}.cls-5{fill:url(#New_Gradient_Swatch_4-3);}.cls-6{fill:url(#New_Gradient_Swatch_4-4);}.cls-7{fill:url(#New_Gradient_Swatch_4-5);}.cls-8{fill:url(#New_Gradient_Swatch_4-6);}.cls-9{fill:url(#New_Gradient_Swatch_4-7);}.cls-10{fill:url(#New_Gradient_Swatch_4-8);}.cls-11{fill:url(#New_Gradient_Swatch_4-9);}.cls-12{fill:url(#New_Gradient_Swatch_4-10);}.cls-13{fill:url(#New_Gradient_Swatch_4-11);}.cls-14{fill:url(#New_Gradient_Swatch_4-12);}.cls-15{fill:url(#New_Gradient_Swatch_4-13);}.cls-16{fill:url(#New_Gradient_Swatch_4-14);}.cls-17{fill:url(#New_Gradient_Swatch_4-15);}.cls-18{fill:url(#New_Gradient_Swatch_4-16);}.cls-19{fill:url(#New_Gradient_Swatch_4-17);}.cls-20{fill:url(#New_Gradient_Swatch_4-18);}.cls-21{fill:url(#New_Gradient_Swatch_4-19);}.cls-22{fill:url(#New_Gradient_Swatch_4-20);}.cls-23{fill:url(#New_Gradient_Swatch_4-21);}.cls-24{fill:url(#New_Gradient_Swatch_4-22);}.cls-25{fill:url(#New_Gradient_Swatch_4-23);}.cls-26{fill:url(#New_Gradient_Swatch_4-24);}.cls-27{fill:url(#New_Gradient_Swatch_4-25);}.cls-28{fill:url(#New_Gradient_Swatch_4-26);}.cls-29{fill:url(#New_Gradient_Swatch_4-27);}.cls-30{fill:url(#New_Gradient_Swatch_4-28);}.cls-31{fill:url(#New_Gradient_Swatch_4-29);}.cls-32{fill:url(#New_Gradient_Swatch_4-30);}.cls-33{fill:url(#New_Gradient_Swatch_4-31);}.cls-34{fill:url(#New_Gradient_Swatch_4-32);}.cls-35{fill:url(#New_Gradient_Swatch_4-33);}.cls-36{fill:url(#New_Gradient_Swatch_4-34);}.cls-37{fill:url(#New_Gradient_Swatch_4-35);}.cls-38{fill:url(#New_Gradient_Swatch_4-36);}.cls-39{fill:url(#New_Gradient_Swatch_4-37);}.cls-40{fill:url(#New_Gradient_Swatch_4-38);}.cls-41{fill:url(#New_Gradient_Swatch_4-39);}.cls-42{fill:url(#New_Gradient_Swatch_4-40);}.cls-43{fill:url(#New_Gradient_Swatch_4-41);}.cls-44{fill:url(#New_Gradient_Swatch_4-42);}.cls-45{fill:url(#New_Gradient_Swatch_4-43);}.cls-46{fill:url(#New_Gradient_Swatch_4-44);}.cls-47{fill:url(#New_Gradient_Swatch_4-45);}.cls-48{fill:url(#New_Gradient_Swatch_4-46);}.cls-49{fill:url(#New_Gradient_Swatch_4-47);}.cls-50{fill:url(#New_Gradient_Swatch_4-48);}.cls-51{fill:url(#New_Gradient_Swatch_4-49);}.cls-52{fill:url(#New_Gradient_Swatch_4-50);}.cls-53{fill:url(#New_Gradient_Swatch_4-51);}.cls-54{fill:url(#New_Gradient_Swatch_4-52);}</style><radialGradient id="New_Gradient_Swatch_4" cx="235.51" cy="230.07" r="4.62" gradientTransform="matrix(0.97, -0.37, 0.36, 0.93, -304.78, 223.64)" gradientUnits="userSpaceOnUse"><stop offset="0" stop-color="#fff"/><stop offset="1"/></radialGradient><radialGradient id="New_Gradient_Swatch_4-2" cx="235.63" cy="229.99" r="4.63" xlink:href="#New_Gradient_Swatch_4"/><radialGradient id="New_Gradient_Swatch_4-3" cx="275.99" cy="211.45" r="2.56" xlink:href="#New_Gradient_Swatch_4"/><radialGradient id="New_Gradient_Swatch_4-4" cx="275.98" cy="211.52" r="2.61" xlink:href="#New_Gradient_Swatch_4"/><radialGradient id="New_Gradient_Swatch_4-5" cx="289.46" cy="165.93" r="10.37" xlink:href="#New_Gradient_Swatch_4"/><radialGradient id="New_Gradient_Swatch_4-6" cx="289.46" cy="165.93" r="10.32" xlink:href="#New_Gradient_Swatch_4"/><radialGradient id="New_Gradient_Swatch_4-7" cx="347.44" cy="213.7" r="9.59" xlink:href="#New_Gradient_Swatch_4"/><radialGradient id="New_Gradient_Swatch_4-8" cx="347.35" cy="213.69" r="9.59" xlink:href="#New_Gradient_Swatch_4"/><radialGradient id="New_Gradient_Swatch_4-9" cx="423.93" cy="233.7" r="10.68" xlink:href="#New_Gradient_Swatch_4"/><radialGradient id="New_Gradient_Swatch_4-10" cx="424.02" cy="233.73" r="10.67" xlink:href="#New_Gradient_Swatch_4"/><radialGradient id="New_Gradient_Swatch_4-11" cx="495.64" cy="221.99" r="9.52" xlink:href="#New_Gradient_Swatch_4"/><radialGradient id="New_Gradient_Swatch_4-12" cx="495.62" cy="222.1" r="9.54" xlink:href="#New_Gradient_Swatch_4"/><radialGradient id="New_Gradient_Swatch_4-13" cx="551.14" cy="195.59" r="8.1" xlink:href="#New_Gradient_Swatch_4"/><radialGradient id="New_Gradient_Swatch_4-14" cx="551.24" cy="195.56" r="8.12" xlink:href="#New_Gradient_Swatch_4"/><radialGradient id="New_Gradient_Swatch_4-15" cx="583.21" cy="256.21" r="2.76" xlink:href="#New_Gradient_Swatch_4"/><radialGradient id="New_Gradient_Swatch_4-16" cx="583.26" cy="256.17" r="2.76" xlink:href="#New_Gradient_Swatch_4"/><radialGradient id="New_Gradient_Swatch_4-17" cx="691.65" cy="221.03" r="10.32" xlink:href="#New_Gradient_Swatch_4"/><radialGradient id="New_Gradient_Swatch_4-18" cx="691.65" cy="221.01" r="10.38" xlink:href="#New_Gradient_Swatch_4"/><radialGradient id="New_Gradient_Swatch_4-19" cx="621.18" cy="288.48" r="11.1" xlink:href="#New_Gradient_Swatch_4"/><radialGradient id="New_Gradient_Swatch_4-20" cx="621.29" cy="288.45" r="11.15" xlink:href="#New_Gradient_Swatch_4"/><radialGradient id="New_Gradient_Swatch_4-21" cx="676.12" cy="254.73" r="7.26" xlink:href="#New_Gradient_Swatch_4"/><radialGradient id="New_Gradient_Swatch_4-22" cx="676.13" cy="254.73" r="7.28" xlink:href="#New_Gradient_Swatch_4"/><radialGradient id="New_Gradient_Swatch_4-23" cx="675.98" cy="295.24" r="8.68" xlink:href="#New_Gradient_Swatch_4"/><radialGradient id="New_Gradient_Swatch_4-24" cx="675.95" cy="295.28" r="8.64" xlink:href="#New_Gradient_Swatch_4"/><radialGradient id="New_Gradient_Swatch_4-25" cx="599.34" cy="258.03" r="6.34" xlink:href="#New_Gradient_Swatch_4"/><radialGradient id="New_Gradient_Swatch_4-26" cx="599.41" cy="258.03" r="6.3" xlink:href="#New_Gradient_Swatch_4"/><radialGradient id="New_Gradient_Swatch_4-27" cx="653.09" cy="303.86" r="6.93" xlink:href="#New_Gradient_Swatch_4"/><radialGradient id="New_Gradient_Swatch_4-28" cx="653.06" cy="303.95" r="6.97" xlink:href="#New_Gradient_Swatch_4"/><radialGradient id="New_Gradient_Swatch_4-29" cx="638.29" cy="257.96" r="6.02" xlink:href="#New_Gradient_Swatch_4"/><radialGradient id="New_Gradient_Swatch_4-30" cx="638.31" cy="257.99" r="6.13" xlink:href="#New_Gradient_Swatch_4"/><radialGradient id="New_Gradient_Swatch_4-31" cx="619.5" cy="213.85" r="10.65" xlink:href="#New_Gradient_Swatch_4"/><radialGradient id="New_Gradient_Swatch_4-32" cx="619.37" cy="213.86" r="10.71" xlink:href="#New_Gradient_Swatch_4"/><radialGradient id="New_Gradient_Swatch_4-33" cx="617.67" cy="189.82" r="8.19" xlink:href="#New_Gradient_Swatch_4"/><radialGradient id="New_Gradient_Swatch_4-34" cx="617.6" cy="189.91" r="8.14" xlink:href="#New_Gradient_Swatch_4"/><radialGradient id="New_Gradient_Swatch_4-35" cx="670.74" cy="186.64" r="11.81" xlink:href="#New_Gradient_Swatch_4"/><radialGradient id="New_Gradient_Swatch_4-36" cx="670.75" cy="186.67" r="11.81" xlink:href="#New_Gradient_Swatch_4"/><radialGradient id="New_Gradient_Swatch_4-37" cx="699.63" cy="177.94" r="8.55" xlink:href="#New_Gradient_Swatch_4"/><radialGradient id="New_Gradient_Swatch_4-38" cx="699.61" cy="177.94" r="8.57" xlink:href="#New_Gradient_Swatch_4"/><radialGradient id="New_Gradient_Swatch_4-39" cx="744.9" cy="198.5" r="6.31" xlink:href="#New_Gradient_Swatch_4"/><radialGradient id="New_Gradient_Swatch_4-40" cx="744.91" cy="198.54" r="6.33" xlink:href="#New_Gradient_Swatch_4"/><radialGradient id="New_Gradient_Swatch_4-41" cx="813.02" cy="240.85" r="7.1" xlink:href="#New_Gradient_Swatch_4"/><radialGradient id="New_Gradient_Swatch_4-42" cx="813.09" cy="240.81" r="7.06" xlink:href="#New_Gradient_Swatch_4"/><radialGradient id="New_Gradient_Swatch_4-43" cx="824.34" cy="144.81" r="8.29" xlink:href="#New_Gradient_Swatch_4"/><radialGradient id="New_Gradient_Swatch_4-44" cx="824.35" cy="144.76" r="8.29" xlink:href="#New_Gradient_Swatch_4"/><radialGradient id="New_Gradient_Swatch_4-45" cx="961.2" cy="153.71" r="7.05" xlink:href="#New_Gradient_Swatch_4"/><radialGradient id="New_Gradient_Swatch_4-46" cx="961.09" cy="153.71" r="7.1" xlink:href="#New_Gradient_Swatch_4"/><radialGradient id="New_Gradient_Swatch_4-47" cx="889.89" cy="251.42" r="6.8" xlink:href="#New_Gradient_Swatch_4"/><radialGradient id="New_Gradient_Swatch_4-48" cx="889.85" cy="251.42" r="6.85" xlink:href="#New_Gradient_Swatch_4"/><radialGradient id="New_Gradient_Swatch_4-49" cx="1022.38" cy="255.27" r="7.06" xlink:href="#New_Gradient_Swatch_4"/><radialGradient id="New_Gradient_Swatch_4-50" cx="1022.29" cy="255.34" r="7.03" xlink:href="#New_Gradient_Swatch_4"/><radialGradient id="New_Gradient_Swatch_4-51" cx="894.55" cy="322.1" r="11.33" xlink:href="#New_Gradient_Swatch_4"/><radialGradient id="New_Gradient_Swatch_4-52" cx="894.58" cy="322.19" r="11.36" xlink:href="#New_Gradient_Swatch_4"/></defs><title>star3</title><g class="cls-1"><g id="Layer_2" data-name="Layer 2"><g id="Layer_1-2" data-name="Layer 1"><g class="cls-2"><polygon class="cls-3" points="0 353.15 6.57 351.79 12.52 348.35 5.78 349.76 0 353.15"/><polygon class="cls-4" points="4.01 344.61 5.19 350.94 8.62 356.64 7.41 350.08 4.01 344.61"/><polygon class="cls-5" points="35.45 319.7 38.91 318.86 42.4 317.04 38.51 317.84 35.45 319.7"/><polygon class="cls-6" points="37.6 314.96 38.21 318.51 40.2 321.73 39.53 318.01 37.6 314.96"/><polygon class="cls-7" points="21.62 276.14 36.21 273.19 49.69 265.37 34.45 268.59 21.62 276.14"/><polygon class="cls-8" points="30.49 257.34 33.15 271.29 40.8 284.21 37.93 269.62 30.49 257.34"/><polygon class="cls-9" points="96.11 298.82 109.4 296.08 122.07 288.87 107.94 291.77 96.11 298.82"/><polygon class="cls-10" points="104.21 281.3 106.68 294.38 113.79 306.27 111.06 292.7 104.21 281.3"/><polygon class="cls-11" points="176.06 289.59 191.11 286.43 204.96 278.51 189.3 281.69 176.06 289.59"/><polygon class="cls-12" points="185.18 270.09 187.9 284.49 195.83 297.86 192.96 282.62 185.18 270.09"/><polygon class="cls-13" points="243.04 251.33 256.46 248.52 268.81 241.44 254.85 244.32 243.04 251.33"/><polygon class="cls-14" points="251.1 234.03 253.56 246.88 260.63 258.87 258.02 245.31 251.1 234.03"/><polygon class="cls-15" points="289.37 205.19 300.75 202.9 311.29 196.79 299.37 199.31 289.37 205.19"/><polygon class="cls-16" points="296.34 190.38 298.42 201.39 304.44 211.51 302.22 200 296.34 190.38"/><polygon class="cls-17" points="349.42 247.05 353.38 246.29 356.9 244.18 352.9 245.04 349.42 247.05"/><polygon class="cls-18" points="351.75 242.04 352.48 245.74 354.51 249.22 353.85 245.22 351.75 242.04"/><polygon class="cls-19" points="431.9 177.86 446.23 174.82 459.86 167.13 444.65 170.35 431.9 177.86"/><polygon class="cls-20" points="440.63 158.91 443.27 172.94 450.99 185.92 448.21 171.32 440.63 158.91"/><polygon class="cls-21" points="386.62 267.53 402.11 264.25 416.67 256 400.33 259.32 386.62 267.53"/><polygon class="cls-22" points="395.85 247.16 398.96 262.18 406.99 276.2 404.17 260.31 395.85 247.16"/><polygon class="cls-23" points="433.06 213.6 443.12 211.31 452.74 206.05 442.13 208.19 433.06 213.6"/><polygon class="cls-24" points="439.08 200.24 441.06 209.97 446.35 219.2 444.38 208.7 439.08 200.24"/><polygon class="cls-25" points="445.52 252.22 457.53 249.59 469.02 243.2 456.21 245.78 445.52 252.22"/><polygon class="cls-26" points="452.74 236.39 455.12 248.05 461.38 258.9 459.09 246.65 452.74 236.39"/><polygon class="cls-27" points="360.93 244.7 369.83 242.8 378.09 238.12 368.77 240.03 360.93 244.7"/><polygon class="cls-28" points="366.32 233.15 368.01 241.63 372.62 249.56 370.9 240.53 366.32 233.15"/><polygon class="cls-29" points="428.74 267.85 438.41 265.71 447.52 260.65 437.26 262.72 428.74 267.85"/><polygon class="cls-30" points="434.39 255.23 436.37 264.57 441.35 273.36 439.68 263.51 434.39 255.23"/><polygon class="cls-31" points="399.15 229.97 407.55 228.19 415.45 223.72 406.53 225.55 399.15 229.97"/><polygon class="cls-32" points="404.2 218.83 405.82 227 410.33 234.81 408.58 226.07 404.2 218.83"/><polygon class="cls-33" points="358.82 198.12 373.73 195.15 387.64 187.06 371.9 190.36 358.82 198.12"/><polygon class="cls-34" points="367.8 178.69 370.53 193.16 378.49 206.58 375.4 191.35 367.8 178.69"/><polygon class="cls-35" points="351.78 175.15 363.3 172.73 373.96 166.64 361.92 169.13 351.78 175.15"/><polygon class="cls-36" points="358.73 160.32 360.94 171.3 366.88 181.57 364.44 169.95 358.73 160.32"/><polygon class="cls-37" points="397.27 154.34 413.7 150.91 429.26 142.06 411.98 145.59 397.27 154.34"/><polygon class="cls-38" points="407.09 132.85 410.4 148.53 418.89 163.61 415.75 146.76 407.09 132.85"/><polygon class="cls-39" points="426.64 133.79 438.67 131.25 449.77 124.92 437.18 127.38 426.64 133.79"/><polygon class="cls-40" points="433.77 118.11 436 129.66 442.33 140.41 440.06 128.23 433.77 118.11"/><polygon class="cls-41" points="480.94 134.86 489.78 132.98 498.04 128.3 488.75 130.3 480.94 134.86"/><polygon class="cls-42" points="486.23 123.37 488.05 131.87 492.56 139.89 490.77 130.83 486.23 123.37"/><polygon class="cls-43" points="561.18 149.47 571.04 147.41 580.41 142.1 569.94 144.26 561.18 149.47"/><polygon class="cls-44" points="567.18 136.53 569.03 145.92 574.23 154.91 572.42 144.88 567.18 136.53"/><polygon class="cls-45" points="536.14 56.16 547.78 53.82 558.59 47.54 546.35 50.11 536.14 56.16"/><polygon class="cls-46" points="543.09 41.06 545.35 52.21 551.37 62.64 549.17 50.82 543.09 41.06"/><polygon class="cls-47" points="673.88 12.86 683.72 10.88 692.97 5.54 682.61 7.7 673.88 12.86"/><polygon class="cls-48" points="679.75 0 681.53 9.63 686.84 18.48 684.91 8.33 679.75 0"/><polygon class="cls-49" points="640.01 130.57 649.45 128.67 658.41 123.51 648.36 125.5 640.01 130.57"/><polygon class="cls-50" points="645.54 118.14 647.47 127.36 652.38 135.98 650.66 126.2 645.54 118.14"/><polygon class="cls-51" points="769.65 84.97 779.5 82.89 788.78 77.63 778.31 79.78 769.65 84.97"/><polygon class="cls-52" points="775.63 72.16 777.41 81.63 782.65 90.47 780.63 80.47 775.63 72.16"/><polygon class="cls-53" points="663.75 197.25 679.61 193.86 694.41 185.49 677.7 188.89 663.75 197.25"/><polygon class="cls-54" points="673.3 176.56 676.29 191.75 684.65 206.13 681.5 189.83 673.3 176.56"/></g></g></g></g></svg>