<svg xmlns="http://www.w3.org/2000/svg" xmlns:xlink="http://www.w3.org/1999/xlink" viewBox="0 0 72.31 72.22"><defs><style>.cls-1{fill:url(#radial-gradient);}.cls-2{fill:url(#radial-gradient-2);}</style><radialGradient id="radial-gradient" cx="-340.69" cy="-708.98" r="64.76" gradientTransform="translate(264.93 493.16) scale(0.67)" gradientUnits="userSpaceOnUse"><stop offset="0" stop-color="#b0ffff"/><stop offset="1" stop-color="#3ff"/></radialGradient><radialGradient id="radial-gradient-2" cx="-328.83" cy="-688.57" r="64.3" gradientTransform="translate(258.55 482.77) scale(0.68)" gradientUnits="userSpaceOnUse"><stop offset="0" stop-color="#57ffff"/><stop offset="1" stop-color="#00a6bd"/></radialGradient></defs><title>world_highop</title><g id="Layer_2" data-name="Layer 2"><g id="Layer_1-2" data-name="Layer 1"><path class="cls-1" d="M62.12,61.23a36.13,36.13,0,1,1-.8-51.06A36.19,36.19,0,0,1,62.12,61.23Z"/><path class="cls-2" d="M22.71,3.89l.36-.15.21,0,.4-.2.21-.15L24,3.23l.07-.09a1.49,1.49,0,0,0,.67-.33l.13-.08-.13,0-.26.12h0l0,0-.19,0L24.08,3l-.18.13c-.46.21-.46.21-.51.21l.15-.12h-.1l-.26.13-.1.1L23,3.53l0,0C22.68,3.82,22.68,3.82,22.71,3.89ZM41.83,1h0l.11,0h0l.27.05h-.11l.21.05.23,0h.08c.1,0,.19.08.3.05l-.18-.05.15,0c-.14,0-.28-.06-.42-.11h0l-.07,0L42.09,1h0L41.66,1A2.46,2.46,0,0,1,42,1l-.08,0-.2,0h-.05l-.11,0,.09,0h-.21Zm.21,0-.2,0ZM24.36,3.37l.3-.16.08,0L25,3.14,25.41,3c.41-.17.41-.17.41-.23h-.15V2.68c-.23,0-.23,0-.28,0a2.45,2.45,0,0,1-.51.22l-.53.28-.49.3.22,0ZM23.67,3l.11-.07-.06,0a1.76,1.76,0,0,0-.26.1l-.16.11L23,3.28l.25-.09Zm2.4-.55.34-.15.07-.07.19-.1-.13,0-.3.08L26,2.35l-.19.12h.1l0,.05ZM31.85.73h0l0,0,.28,0,.16,0h.11l-.22,0-.28,0-.23,0a2,2,0,0,0,.5-.06h.14l.24,0,.2,0,.36,0h0l-.45.07h.13l-.16,0h-.18l-.12,0L32,.79h-.14l-.19,0h0l-.07,0-.16,0,.06,0H31.4l.25-.12h-.1l-.23,0-.13,0L31,1,30.83,1l0,0h.08l-.27.06-.22.07.18-.1h-.18l-.14,0L30,1.2l-.22.07-.15.05,0,0h.13l.15,0-.28.06-.18.07c.08,0,.08,0,.57-.11l-.27.09-.3.08h-.13V1.46l0-.06h-.13a2.45,2.45,0,0,1-.68.22l-.27.09-.21.12v.05a2.39,2.39,0,0,0,.28-.07h.38v0a.85.85,0,0,0,.19,0s.07,0,.09,0c-.15.07-.15.07-.17.09a.42.42,0,0,0,.16,0h.09a4.19,4.19,0,0,0,.64-.19l.15-.08-.23.06.21-.11.17,0,.27-.1.17-.09h.08a2,2,0,0,0,.57-.17h.12a.31.31,0,0,0,.21-.09v0h0l-.19,0-.16,0,.15-.06.44-.1h.08l-.09,0c.08,0,.08,0,.42-.06l.1-.06h.12l-.09,0h.1l.19,0,.16-.06v0h.19l.16,0,.15,0,.66-.11h.09l.11,0,.07,0-.34,0,.14,0h.3l.26,0,.25,0,.1,0h-.64l-.39,0-.21,0h.06a2.52,2.52,0,0,1-.35,0l.13,0h0l.23,0h-.12l-.35,0h0l-.3,0h-.05L32.6.6h0l-.2,0h0l-.26,0A.76.76,0,0,1,31.85.73ZM29.41,15.93l0-.19c-.23,0-.23,0-.3,0a1.34,1.34,0,0,1-.34-.26c0-.06-.05-.09-.11-.11a3.44,3.44,0,0,0-.4,0,1.4,1.4,0,0,1-.18-.09c.18-.35.18-.35.39-.43,0,0,.18-.2.1-.32a.3.3,0,0,1,0-.09.7.7,0,0,1-.14,0,.71.71,0,0,0-.26.1c-.08.08,0,.19-.08.27s-.09.2-.19.29-1,.93-1.07,1a.7.7,0,0,0-.13.28c0,.08,0,.15,0,.23h1.47c.13,0,.18,0,.3.19a1.08,1.08,0,0,0,.46.4A.26.26,0,0,1,29,17s.17-.06.16-.5c0-.26,0-.26.2-.5Zm-1-13.67h0l.24-.15-.09-.06-.11,0-.29.07-.36.07-.19,0-.11,0-.19,0L27.47,2l.29-.13L28,1.78h-.15a2.48,2.48,0,0,0-.87.36l-.39.15-.16.11-.11.11.25,0,.26-.08-.11.12h0a.58.58,0,0,0,.21,0h.27l.2,0,.18-.07-.05.08c.48,0,.48,0,.61-.12A.65.65,0,0,1,28.39,2.26ZM27.14,3,27,3.12h.37l.3-.11L28,3V2.79H27.4Zm-1.68-.55.18-.05h.12l.12,0,.25-.1.36-.15L26.75,2a1.11,1.11,0,0,0,.3-.15l-.22.06L27,1.82h-.08a2.86,2.86,0,0,1-.6.25h0l.34-.16h-.08L26.3,2,26,2.12,26.18,2l.43-.17.1-.06-.42.14c-.17.07-.34.16-.52.24l0,.06.16,0,.1,0-.16.08ZM30.14,1,30.46.9l.06,0h0l-.29.06h.05L30,1Zm-1.9.55-.18.06h.15l.14,0,.15,0,.21-.07h-.22Zm1.08-.22.18,0v0l.2-.05h0L30,1.19l.24-.07,0,0,.26-.06h0l.24-.05.3-.08s0,0,.05,0l.18,0,.16,0,.09,0-.18,0s.3-.09.55-.13a3.77,3.77,0,0,0,.38-.07l-.26,0h0l-.24,0h-.06L31.21.8H31.1l-.29.05-.17,0-.28.06h0l-.3.07-.12,0h.1l.15,0h.1a1.93,1.93,0,0,1-.36.08h-.08l-.19,0-.12,0-.26.08Zm-1.07,0-.14,0,.17,0h.07l-.28.1v0l.23-.06.27-.08.14,0L29,1.22l.08,0,.12,0h-.09l.16,0,.15,0h-.09l-.25,0-.23.06h.07l-.09,0-.29.08h-.06l-.25.07Zm-.59.34-.3.1-.12.08-.1.07h.1l.3-.09.19-.07.15-.08h-.11l0,0Zm-2.32.91.16-.09-.25.09Zm-.12-.27-.24.1a1.06,1.06,0,0,0,.32-.09c.11,0,.11-.06.11-.06h0C25.34,2.28,25.29,2.32,25.22,2.33ZM29.1,1.22l-.22.07-.39.12,0,0,.13,0,.15,0,.2-.05.19-.07h-.06l.2-.07Zm-.74.38.09,0a1.61,1.61,0,0,0,.48-.16l-.21,0ZM52.42,4.45l0,0-.06,0Zm-.21-.1,0,0,0,0Zm1,.53-.1-.06-.05,0-.21-.11.38.2ZM27.8,1.38h.11l.36-.1h-.08l-.15,0-.36.08h.13ZM51.51,4l0,0,1,.49-.27-.14-.32-.16Zm.94.46.08,0,.09,0Zm.17.09h0Zm.3.17.27.14.22.12h0l-.13-.08,0,0-.38-.2h0l-.15-.08h0l0,0Zm-.39-.21h0l-.07,0h0Zm-.1-.06.2.1h0ZM49,10.94l.09,0,.06,0s0,0,0-.05v-.09h0c.06,0,.12,0,.13,0v0l0,0v-.1l0-.12v0l-.1,0s0,.08-.07.11l-.06,0h0v.07s-.05.08-.06.13A.32.32,0,0,0,49,10.94Zm.39,2.54.1.28h-.2c-.08.13.06.24,0,.37s-.1.05,0,.18a.47.47,0,0,0,.22.15c.07,0,.12-.06.19-.06a.39.39,0,0,1,.2.06c.07,0,.14-.11.15-.12s0,0,0-.11,0,0,.05-.08l.7,0,0-.13c0-.07-.12-.11-.13-.2s.08-.06.07-.12a2.79,2.79,0,0,0-.21-.54L50.36,13c.15,0,.17-.07.15-.13s-.16-.16-.22-.26,0-.13-.09-.17a.3.3,0,0,0-.1-.07s-.06,0-.09,0-.06-.05-.09-.06h0a.47.47,0,0,0-.16.06v.09l-.06,0a1.68,1.68,0,0,0-.27-.18.48.48,0,0,0-.18,0c.06.14.09.3.16.44H49.3l-.06,0s-.06,0-.1,0l0,0s-.07.05-.11,0-.09-.06-.16,0l.23.63A1.12,1.12,0,0,0,49.35,13.47Zm5.38-7.67h0l-.15-.1h0l-.15-.1L54.1,5.4l-.06,0,.22.13ZM42.37,1.16h0Zm.45.11-.17,0-.23-.06c-.25,0-.48-.11-.73-.15h0l.25.06.09,0,.43.11-.29-.07-.09,0-.1,0-.09,0-.21,0,.23.07h0l-.15,0L41.5,1l.13,0h-.1v0c.39.11.78.18,1.17.32a2.76,2.76,0,0,0-.49-.13c.22.06.44.14.67.18l-.24-.09c.15,0,.28.1.43.1h.05l-.32-.12-.14,0h0l.36.1h.07l-.1,0,.08,0,.24.07.07,0h-.16l0,0h-.05s0,0,.09.05l.2.07h0l.12,0-.11-.06h0a.78.78,0,0,1,.3.12h0l-.14,0a1.29,1.29,0,0,0,.42.15,4,4,0,0,1,.69.21h0l-.69-.29h0l-.44-.15h0a2.6,2.6,0,0,0-.56-.18h.13c.68.2.68.2,1.21.38h0l-.16-.08.38.12h.05l-.2-.07h.08l-.09,0L44,1.54h-.11l-.68-.18-.47-.1Zm8.91,2.85.08,0,.35.17-.44-.22h0l-.59-.28.36.18Zm-1.38-.64,0,0h0Zm-.62,7.92v.06l0,.11c0,.08.12.13.09.24-.2.05-.2.05-.09.24h.17s0,0,.27.15h.15a.3.3,0,0,1,0-.17s.33.31.3.44c-.19,0-.09.11,0,.23l.38,0v-.09c.26.13.31.46.58.58,0,.18,0,.18.08.23s.12.17.07.22h-.23c-.08,0-.14-.08-.23-.08h-.11s0,0,0,.09v.09H51l0,.09c.15.09.46,0,.47.24h-.09c-.05.06-.05.06,0,.14s0,0-.1,0h-.05c.08.38.25.27.31.22a6.27,6.27,0,0,1,.64.09s.12.13,0,.19-.26,0-.38.07a.49.49,0,0,1,0,.09l-.22,0a.7.7,0,0,1,.08.28.33.33,0,0,1-.2.13c.14.08.14.08.33,0l.07-.07v-.07a.85.85,0,0,1,.2.07h.24c-.07-.2-.07-.21-.05-.25.62.11.61,0,.6-.1l0,0c.15,0,.24.15.38.18h0c.1,0,.2,0,.3,0s0-.07,0-.14.15,0,.21,0-.16-.21-.23-.33l0-.06s0,0,0-.08h.13s0-.1,0-.18h.15a1.54,1.54,0,0,0-.1-.19c-.17-.1-.28-.28-.44-.39l-.06,0s0,0,0,.21-.07,0-.39-.5h-.22a2.76,2.76,0,0,0-.14-.33c-.09-.11-.25-.15-.35-.25l-.09,0c-.06-.13-.23-.16-.28-.29s-.29-.35-.44-.35-.47-.09-.34-.29,0-.06,0-.08h.13l-.05-.1c-.05-.09.07-.17,0-.26L50.89,11c-.23,0-.46,0-.7,0,0-.07,0-.07,0-.1s-.08-.13-.08-.2a1.3,1.3,0,0,0,.08-.17c-.08-.07-.08-.07-.14-.08H49.9s-.07,0-.31,0l0,0a1.34,1.34,0,0,1,.08.31c0,.1.1.19.14.29-.14,0-.25-.08-.38-.1s0,.27,0,.29S49.66,11.3,49.74,11.39Zm.46-8,.53.24.17.07.25.12.33.15-.37-.18,0,0,0,0h0l-.34-.16h0l-.15-.07-.06,0-.13-.06-.35-.15ZM37.95,47.67h-.55c-.87-.26-.87-.26-.95-.78-.55-.35-.55-.35-.94-.24h-.77c-.75-.3-.75-.3-1-.21,0,.06,0,.14,0,.2-.16.09-.24.14-.62,0,0-.05,0-.12,0-.17l.28-.18a3.09,3.09,0,0,0-1.36-.64.69.69,0,0,1-.26-.07.8.8,0,0,0-.67-.11c0,.18,0,.36,0,.55h-.49a2.71,2.71,0,0,1,0-.32l.21-.26.14-.11-.1-.16s-.32-.1-.66-.23h-.13l-.26,0c0,.39,0,.57-.46.49a2.34,2.34,0,0,1,0-.29v-.17a.82.82,0,0,0,.5-.1,1.6,1.6,0,0,0,0-1h-.34a4.8,4.8,0,0,0-.08-.74c-.05-.21-.19-.4-.26-.6-.61-.15-.66-.31-.72-.47l-.94-.38c-.3-.15-.58,0-.88,0h-.21c-1.42-.28-1.41-.85-1.41-1.09-.56-.29-.56-.29-.74-.41,0,0,0-.08-.16-.14s-.28-.21-.27-.56l-.2,0c-.17.05-.33.13-.5.16-.14-.13-.14-.13-.17-.48l.17-.05s0-.11,0-.16a1.17,1.17,0,0,0-.47-.18L22.5,39s0,0-.14,0a1.17,1.17,0,0,0-.32-.07c-.15.17-.18.42-.32.6h-.19c-.25-.41-.26-.42-.65-.49a4.73,4.73,0,0,1-.62,0l-.33-.09a.41.41,0,0,0-.15-.36c-.26-.08-.47-.27-.74-.33l-.14.1a5.82,5.82,0,0,1-.63.69,5.52,5.52,0,0,1,.14.88l-.12.12a1.51,1.51,0,0,1,.15-2l-.05-.12-.29,0c-.31.1-.3.13-.27.52h-.59c-.69.48-.69.48-1.07.48,0,.24,0,.47,0,.74s-.13.14-.45.24c0,.49-.69.77-.43,1.35l.16,0c0,.49.65,1,.11,1.47-.06.9-.06.9-.37,1,0,.12.07.29.1.41l-.25.21v.24c-.34.12-.35.28-.28.7a1,1,0,0,0-.37.06c.1.34.07.69.19,1a2.59,2.59,0,0,0,.49,0c0,.07,0,.15,0,.24L15,46.7a.68.68,0,0,0-.28.16c.05.35-.2.72.06,1.05a1.24,1.24,0,0,0,0,.15c.21,1,1.43,1.23,1.71,2.18,0,.08,0,.17.07.26.25.33.32.77.64,1.06.61.56.59,1.92,1.76,1.77s1.14,1.35,2.15,1.33c.1.35.2.7.32,1.08a1.13,1.13,0,0,0,.09.32v0a1.88,1.88,0,0,0,.07.19l.08.15a.56.56,0,0,1,0,.18,1.2,1.2,0,0,0,.09.33v0a.66.66,0,0,0,.1.19l.06.16,0,.05a.61.61,0,0,1,0,.25,1.3,1.3,0,0,0,.17.3l0,.09,0,.11a4.07,4.07,0,0,0,.1,1,5,5,0,0,1,.24,1.34l.08.14c.68,1.12.91,1.51.76,2a1.67,1.67,0,0,0,.14.23l.07.15c.09.12.09.12.07.73.41.39.46,1,.88,1.39s.21.75.61.93h.18l-.4-.62h.22l.14.22,0,.17c.09.12.18.24.26.37a5.24,5.24,0,0,0,.44.71l-.31-.19,0-.06-.12-.13s0,0-.05,0a.87.87,0,0,0,.2.2,1.53,1.53,0,0,1,.49.43c-.16-.05-.28-.16-.44-.22a.38.38,0,0,1,.11.2,1.37,1.37,0,0,1,0,.16c.33.21.73.29,1,.6a.59.59,0,0,0-.27.16l.14.12.27.19.1.16c.2.11.36.26.55.37l0,.06.12.05a.42.42,0,0,1,.16,0,.5.5,0,0,0,.26.18l0,0,1.23.65.1.07a4.2,4.2,0,0,0,.49.13l.17,0,.34,0,.08-.1a1,1,0,0,0-.48-.14.41.41,0,0,0-.24-.11s-.24-.18-.53-.41l-.13-.11c-.12-.12-.26-.22-.38-.33l-.12-.11-.16-.18-.1-.13a.36.36,0,0,0,.21,0,1.63,1.63,0,0,1-.2-.27l.13-.1-.13-.35.09-.14s-.06-.08-.2-.13l-.16,0c-.52-.35-.52-.35-.59-.43a.48.48,0,0,1-.05-.17l.1-.13H28a1.53,1.53,0,0,1-.21-.47,2.08,2.08,0,0,1-.07-.48l.18,0,0-.16s0,0-.14-.14h-.05l-.15.08c-.11-.07-.11-.07-.32-.38L27.15,65h.13a2.45,2.45,0,0,1,.33.16H28L27.93,65l-.07-.17c0-.19,0-.19-.18-.45l-.08-.17a3.12,3.12,0,0,0,.39,0h.25l.16-.06h.39l.16,0c0-.29.23-.49.33-.74l0-.15-.07-.24-.16,0L29,62.81c-.18-.23-.5-.3-.66-.56h.34c1.12.26,1.39.32,1.48-.08.29-1.39.55-1.54.65-1.6a.64.64,0,0,1,0,.32l.16,0a4.49,4.49,0,0,0,.38-.76c0-.3.44-.3.48-.6s-.4-.76-.21-1.2a8.18,8.18,0,0,1,.94-1h.54a2.47,2.47,0,0,0,.37-.35c.4,0,.8,0,1.2,0a.69.69,0,0,1,.11-.3,1.21,1.21,0,0,0,.45-.65,2.15,2.15,0,0,0,.29-.19,1.29,1.29,0,0,1,.19-.71c.11-.07.11-.07.27-.93A.61.61,0,0,1,36.1,54a1.56,1.56,0,0,0,.19-.66,1.89,1.89,0,0,0,0-.26l0-.16a1.55,1.55,0,0,0,0-.33,1.31,1.31,0,0,1,.14-.67c.11,0,.11,0,.76-.87a.52.52,0,0,0,.44-.24l.78-1.09c.21-.39.21-.39.22-.61C38.57,49.09,38.52,47.92,37.95,47.67ZM53,10.55s.06.05.08.08l0,.06h.21l.05,0,.17.13.1,0c.08,0,.15.09.24.07s.1,0,.07-.09v0c.07,0,.07,0,.1,0l0-.06s0-.06,0-.1v-.07L53,10.47h0C53,10.53,53,10.53,53,10.55ZM71.66,31.34v.08c0,.16.05.32.07.49v0c0-.1,0-.21,0-.31v0C71.68,31.47,71.67,31.4,71.66,31.34Zm-.79-3.92h0v0Zm.39,13-.22.06a.75.75,0,0,0-.24,0l-.13-.16a3.17,3.17,0,0,0-.06-.88c0-1.54-1-2.89-.89-4.46,0-.08,0-.17,0-.32s-.58-4.66-2.45-7.22c0,0,0,0-.15,0l-.13.16h-.05c-1-.42-1.75-1.2-2.85-1.33.09.47.22.92.28,1.4l-.2,0h-.25c-.2-.19-.32-.46-.6-.56a6.43,6.43,0,0,1-.73-.08c-.06-.12-.08-.31-.17-.41-.43-.51-1.14-.51-1.65-.88s-.18-1.22-.68-1.65c0-.07,0-.15,0-.22a.64.64,0,0,0,.27-.29,2.14,2.14,0,0,0-.57-.32,4.46,4.46,0,0,1-1.26.16.91.91,0,0,1-.31.24c-.47-.41-.47-.41-1.34-.26l-.1.19a1.88,1.88,0,0,0-.92.12,1.1,1.1,0,0,1-.1.39c-.26.06-.54,0-.79.13l-.2,0-.22,0h-.15a.89.89,0,0,1-.79-.26l-.21-.12c-.18.32,0,.68-.13,1a2.22,2.22,0,0,1-.64,0c0,.31.09.62.12.94a1.6,1.6,0,0,0-.74.09c0,.52-.06,1,0,1.55,0,.13,0,.27,0,.41a1.22,1.22,0,0,0-.62.09.92.92,0,0,1-.84.93,12.37,12.37,0,0,0-1.09,2.25h-.2l-.2,0-.19.12c.08,1.21-.08,1.27-.55,1.45l-.07.2a.7.7,0,0,0,.12.45c.85.16.85.16.93.32-.23.46-.23.46-.23,2,0,.08,0,.16,0,.25s0,.19-.44.63c0,.29.13.57.18.86,0,.08,0,.16,0,.44a6.05,6.05,0,0,0,1.68,1.92,1.09,1.09,0,0,0,1.15,1.39c.87,1.71.93,1.81,1.73,1.7a1.64,1.64,0,0,0,.18-.4c.26-.11.55,0,.81-.05h.75c.17.25.17.25,1.28.25.34-.69.63-.63,1.27-.49h.12s.54-.56,1-.18c.07.94.07.94.45,1.11l1.46.08c0,.24-.08.48-.12.75a21.18,21.18,0,0,0-.69,2.2.57.57,0,0,0-.3.23.67.67,0,0,0,.3.26c.13.32,0,.72.31,1-.11,1,.44,2-.08,3,0,.07-.05.14-.13.39a.8.8,0,0,0,.07.42l-1.51,2.49c-.94.65-.75,2.79-.74,2.8a2.53,2.53,0,0,0-.36,1l-.59,1s-1.1,2.82-1.25,3.25l-.12.13c-.35.18-.35.18-.43.44,0,0,.07,0,0,.13l-.14.16c0,.06,0,.15,0,.21a2.93,2.93,0,0,0,.59,0l.41-.13a1.71,1.71,0,0,0,.66-.05c1.68-1.59,3.79-2.63,5.46-4.23l3.83-4.69.25-.47a3.88,3.88,0,0,0,.16-.38c.21-.41.41-.83.6-1.3.09-.77.55-1.41.7-2.16l.06-.15c.62-1.44,1.69-2.63,2.31-4.07,1.25-2.9,1.25-2.9,1.5-4.79,0-.16,0-.32-.1-.43ZM56,6.55l-.21-.13.25.18,1,.66h0l-.74-.52-.08-.06h0l-.52-.35,0,0ZM15.38,34.86c.06,0,.13,0,.2,0s0,0,.18-.22l0,0c0-.08,0-.17,0-.25s-.12,0-.17,0-.11-.09-.17-.12h-.63c0,.07.06.15.1.22l.05.06s.05,0,.16,0,.27.12.27.12,0,.07,0,.15A.19.19,0,0,0,15.38,34.86ZM55.56,6.28l.06,0-.2-.14h0Zm11,48.26c-.26,0-.19.32-.36.42-.23-.06-.23-.06-.88.86-.28.4-.37.93-.78,1.25l0,0c-.27.3-.5.63-.76.94l-.07.09c-.11.15-.2.32-.31.47l-.14.19c-.13.18-.27.34-.39.53l0,0H63c-.09.14-.09.14-.09.16l0,0v0c.61-.15,3.15-3.8,3.17-3.84l.13-.2.11-.2.06-.1c.08-.11.18-.22.25-.34l.06-.1c.74-1.29.73-1.36.7-1.53A13.48,13.48,0,0,1,66.55,54.54ZM40.63,4.25l0,0V4.12c.1,0,.22,0,.32,0-.14-.19-.36-.26-.52-.4s-.37-.16-.45-.36l.05,0,.24.13h.15l-.1-.18a.34.34,0,0,1,0-.09A.23.23,0,0,0,40,3.08a.28.28,0,0,1-.17,0L39.88,3s0,0-.19-.09v0h.2L40,3h.22l0,0h.15c.11,0,.11,0,.17,0,0-.28-.37-.16-.54-.28v0c.22,0,.29,0,.32,0l0-.06.05,0h.07l.1,0c-.16-.15-.41-.17-.54-.36,0,0,0,0,.13,0L40,2.05A.61.61,0,0,1,39.86,2l0,0c-.15-.07-.33,0-.46-.16l0,0s0,0,.14-.05h.08a.33.33,0,0,1,.2.07l0,0c0,.06,0,.07.21.18l0,0-.3-.27v0l0,0c-.09,0-.09,0-.26-.05h-.12a.31.31,0,0,1-.09-.1l0,0h0l.05,0A.65.65,0,0,0,39,1.39l0,.05a.32.32,0,0,1-.17-.13v0l-.17-.13h.08l0,0V1.06s0,0,0,0-.14-.08-.15-.14h.05l0,0V.8l-.06,0h-.18l0,0,.1,0h0L38.28.68l0,0-.11,0c-.11,0-.22,0-.32,0h-.1l.1,0a.45.45,0,0,1-.16,0l0,0h0l0,0,0,0-.12-.1-.1-.05-.15,0H37.2l.05,0h-.11l0,0h.07a.47.47,0,0,0-.18,0h-.13l-.1,0h-.11v0h.24a.93.93,0,0,0,.2,0H37l-.21,0h-.57l-.06,0h-.38l0,0h0l0,0H35.4l0,0h0l0,0h-.05v0h0l-.06,0,0,0h0L35,.58h-.06l0,0,.06,0h-.6l-.1,0h0l-.17.05H34l-.08,0-.2,0-.1,0h-.3l-.11,0h0l-.1,0h.2l-.1,0h-.06L33,1l-.11,0h-.12l-.12,0h-.16a.33.33,0,0,0-.13,0l0,0-.06,0-.05,0H32l-.2,0H31.5c-.19.06-.19.07-.22.13l0,0,0,0h.14v0h0v0h.1l.08,0h.27l-.11.06-.05,0h0l-.13,0H31.4l-.1,0h0l-.07,0h0l-.09,0H31a.16.16,0,0,0-.12.07h0s.06,0,.11.08H30.9l0,0v0l0,0v0l0,0h0l0,0h0v0l.06,0H31l0,0,.07-.07h0l.1,0h0l0,0h.18l0,0h.13l0,0,.07,0,0,0H32l0,0v0h.18l0,0h.1V2l0,0h0v0a.85.85,0,0,0-.12.16v0h0v0h0v.39h0l0,.06,0,0c-.05,0-.06,0,0,.14l-.07.11c-.09.06-.09.06-.11.11h.12a.2.2,0,0,1-.08.09l-.1,0c0,.06-.05.13-.1.18h-.1l-.05.1v.06l.1,0h.15a1.79,1.79,0,0,0,.29,0c0-.05,0-.05.29-.09,0,.11-.06.25.15.25h0A1.28,1.28,0,0,1,33,4V4l0,.05h-.32c-.11,0-.18,0-.24-.09-.41,0-.45,0-.45.11l.08.08c-.1.11-.3.07-.38.24l0,0c.24,0,.24,0,.33.16h.06a.49.49,0,0,1,.43-.13c0-.06,0-.13.06-.19l-.23,0v0h-.11l.05-.05h.15c.08.06.08.06.25.09h.17l.1,0v.06l0,0c-.07,0-.11.1-.17.14a.12.12,0,0,0,0,.06c.07.08.07.08.08.14l-.05.16-.22,0c-.08,0-.14.11-.24.1h-.21a.76.76,0,0,1-.15.27l-.1,0c-.35.18-.35.18-.36.21a.47.47,0,0,0,0,.08.36.36,0,0,0,0,.11c.22.05.24.11.24.13s-.26.11-.25.28l0,.05s0,.1.06.23.24-.07.36-.06h.1l0,0,0,.1H32l-.05,0c-.18.44-.18.44-.13.52.21,0,.34-.22.55-.18a1.6,1.6,0,0,1-.09.29c-.08.07-.2.07-.28.14a5.73,5.73,0,0,0,.37,1.06c.32.48.59.72.8.7h.12a.32.32,0,0,1,.18,0h.05l.16,0c0,.31.35.27.5.44s.68.09.67-.18c0,0,0-.05,0-.12,0-.35.61-.69.24-1,0,0-.23-.22.13-.24h.29a.78.78,0,0,1,.33-.36,1.26,1.26,0,0,1,0-.37l0,0a.34.34,0,0,0-.14-.3V6.65c.11-.07.26,0,.37-.1s0-.15,0-.21h.44a.58.58,0,0,1,0-.24.77.77,0,0,1,.24,0c0,.17,0,.18,0,.24.22,0,.38-.19.58-.27h.08a.47.47,0,0,0,.26,0V6c.07-.13.2-.19.28-.3s.08,0,.15-.19l.12,0a.14.14,0,0,1,0-.09c.14-.12.14-.12.1-.27h.13l0,0h0l0,0a.31.31,0,0,0,.17,0c.16,0,.29.1.45.1s.21-.29.42-.28.27-.11.41-.09.13-.29.3-.34h.31c.06,0,.06,0,.15-.16l0,0-.07,0-.07.08,0,.07h-.11c-.11,0-.18-.15-.31-.15h-.09c-.37,0-.43-.13-.46-.19l0-.1c.42-.07.42-.07.49-.14S40.41,4.23,40.63,4.25Zm4,2.42a.72.72,0,0,0-.29-.07,1.61,1.61,0,0,0-.21-.42h-.3c-.11,0-.11,0-.35.24-.14,0-.28-.07-.42-.07s-.31.05-.36.1a.18.18,0,0,1-.13.05h-.26l-.05-.13-.05-.13c0-.06-.11-.08-.15-.13l-.12,0,.05.12a1.35,1.35,0,0,0-.5,0s-.38.07-.1.35c.13,0,.25-.1.39-.05l.28.16s0,.11.06.16a1.63,1.63,0,0,0-.69,0l.12.2.11,0h.28l0,0,.09.27.12.14h.14c.14,0,.27,0,.41,0h.15c.2,0,.3.17.47.22,0,0,.54.12.52-.15,0-.11,0-.11.08-.2s.14,0,.18,0,.07-.14.14-.16.1,0,.62,0l-.15-.27S44.69,6.7,44.63,6.67ZM16,32.43h-.22c-.22,0-.43.1-.65,0s-.18-.24-.3-.35a4.85,4.85,0,0,0-.55-.35c-.21-.14-.21-.14-.24-.24s0-.14-.17-.14l-.43,0c-.09,0-.09,0-.2.1s-.17,0-.25,0h-.4c-.34,0-.34,0-.39,0a.52.52,0,0,0,.66.78c.12-.08.19-.23.33-.29a1.21,1.21,0,0,1,.34,0s.39.15.42.4c0,.06,0,.1.06.13.33.19.38.17.48.15s.17,0,.22.14a.65.65,0,0,0,.5.37l1.53,0C16.63,33,16.27,32.47,16,32.43ZM55.42,6.19h0ZM72,35.07h0c0,.05,0,.1,0,.15s0-.43,0-1v0h0v-.07h0V34h0v-.18h0s0,0,0,0l0-.27h0s0-.08,0-.12h0c-.06-.64-.13-1.18-.13-1.18h0c0,.23,0,.28,0,.39.12,1.07.19,2.16.21,3.26v-.22C72,35.45,72,35.26,72,35.07Zm0-.84v0h0ZM54.54,10.55c.09.12.24.17.34.29l0,0V11a1.19,1.19,0,0,0,.25.24c.21.12.21.12.28.19l.06.08.06.08a1.22,1.22,0,0,0,.41.35.3.3,0,0,1,.14.13c0,.07,0,.15.08.21l0,0,.14.17.42,0c-.17-.3-.17-.3-.15-.38h.12c.06,0,.1.09.17.07s0-.08,0-.12,0,0,.1,0l-.17-.25.22,0a1.52,1.52,0,0,0-.15-.21h-.11c-.1,0-.15-.07-.23-.09l0-.14c-.08-.22-.27-.38-.35-.6l0,0v-.08l0,0ZM72,34.22c0-.06,0-.12,0-.19v.17Zm-16.57-28L55.16,6h0l.25.16Zm16.34,26c0-.23-.05-.43-.08-.63s0-.13,0-.19c0,.26,0,.26.11,1l0-.05h0l0-.12,0,0c0,.12,0,.23,0,.35a1.3,1.3,0,0,1-.12-.6v-.06l0,0a.34.34,0,0,0,.06.11.42.42,0,0,0,0-.26h0c0-.07-.05-.16-.14-.2s0,0,0,0l-.09-.6a9.93,9.93,0,0,1-.56-2.21c.05,0,.17.06.42,1.09a4.92,4.92,0,0,0,.38,1.1l0,0h0v-.06s0,0,0,0a1.21,1.21,0,0,1,.05.2v0c0,.13,0,.26.06.4l0-.28.07.5h0l-.07-.51-.1-.53c-.15-.77-.32-1.64-.49-2.42-.05-.23-.1-.45-.15-.65l.08.37h0l-.1-.36v0l0-.09L70.75,27l.1.36,0,0h0a.07.07,0,0,1,0,0h0v0l-.15-.51h0l-.06-.21-.09-.32h0l0-.12-.23-.78v0l-.1-.28L70,24.73c.09.26.18.51.26.74A22.13,22.13,0,0,0,69.41,23l.35.89.08.24q-.27-.73-.57-1.46a22.07,22.07,0,0,0-1.12-2.45l-.07-.13q-.67-1.3-1.44-2.54a22.43,22.43,0,0,0-1.4-2.1l-.09-.13-.77-1c-.75-.89-1.75-2.07-2.55-2.92l-.18-.18a34.34,34.34,0,0,0-4.21-3.66L56,6.59l-.69-.46.44.29-.1-.07-.05,0,0,0-.32-.2,0,0h0l0,0h0l-.45-.28L55,6h0l.14.1,0,0c.28.24.67.34.87.67l0,0c-.24-.16-.49-.31-.72-.47h0l-.3-.2L55,6l-.28-.17h0l-.17-.09h-.05l.18.13.11.05.57.38.38.26.28.17.07,0c.14.12.3.22.45.33l-.12-.05L56.22,7l-.11-.07-.05,0c.13.12.24.25.36.37v0c.24.17.49.33.71.51a.49.49,0,0,1-.18-.06h0a2.92,2.92,0,0,1-.61-.34.9.9,0,0,0,.42.36l.15.11.06,0a.71.71,0,0,1,.35.21s-.05,0-.1,0l.05.05a3.6,3.6,0,0,1-1-.66.29.29,0,0,0-.13,0l-.28-.22c-.47-.38-1-.61-1.51-1,.2.08.89.42.89.42l.22,0c.12,0,.22.12.34.15h.07a.63.63,0,0,1,0-.12,7.07,7.07,0,0,0-1.95-1.18l-.23-.11a.56.56,0,0,0-.23-.09l0,0L53,5.29h-.07l.21.14h-.05a1.76,1.76,0,0,1-.28-.18l-.06,0A2.28,2.28,0,0,1,52.4,5h-.08l.05.05L52,4.93l-.14-.08h.06l-.16-.11a2.53,2.53,0,0,0-.66-.26l.27.16a.79.79,0,0,1-.23-.1L51,4.47l-.11-.07-.19,0,.33.21.11.07.06,0h0a2.36,2.36,0,0,0-.4-.24l-.1,0L50.5,4.3h0l0,0-.05,0,.22.16v0a.71.71,0,0,1-.24-.12.28.28,0,0,0-.14,0l0,.05a.83.83,0,0,0,.47.24l.2.13h-.07a1.9,1.9,0,0,0-.3-.08h-.08a2.12,2.12,0,0,1,.38.27c-.27-.11-.52-.25-.78-.37,0,0,0,.08.1.11a2.1,2.1,0,0,1,.47.36c-.08,0-.08,0-.33-.16l0,.06,0,0,.12.1c.08.05.18.07.27.14l.1.07,0,0a3.84,3.84,0,0,1-.61-.31c0,.06.1.12.18.18h-.13s0,0,.19.16l-.12,0,.05.1h0l.09.12h0l0,.05a.25.25,0,0,0,.1,0,.2.2,0,0,1,0-.11h.06V5.57a.29.29,0,0,0,.08-.09.39.39,0,0,1,.32.13h-.12l0,0H50.9a2.27,2.27,0,0,0,.38.42h-.07s.48.78.57.88l-.07-.06c0,.14,0,.14,0,.17a.34.34,0,0,0-.09.08l.1.11.06,0h.14l.13.15a.72.72,0,0,0,0,.12h-.06c0,.1,0,.11,0,.16l.1.17,0,0-.15-.07h-.13l.09.12.13.11,0,.06-.06,0h-.05c-.05.06-.05.06-.07.16h-.06V8.4c.07.08.21.24,0,.24a.29.29,0,0,0,0,.11c.15.15.15.15.17.2l0,0c.06.14.2.22.29.34s0,0,0,0l0,.06.11.17h.16c.17,0,.23.15.23.15l0,.06.11.17-.05,0c.07.16.07.16.38.2a1.19,1.19,0,0,1,.11.19l0,.06,1.08.06a1.77,1.77,0,0,0,0-.2l.05,0,.06,0a.28.28,0,0,0-.07-.19c.24,0,.49.41.49.41l1.72.13V10.6h.06a1.66,1.66,0,0,0-.15-.41l-.08-.09C56,10,56,9.94,55.74,10c-.16-.18-.4-.26-.54-.47l-.54-.61c0-.22-.22-.32-.26-.51h.06c0-.06,0-.1-.07-.23a.21.21,0,0,1,.11,0,.77.77,0,0,0-.14-.22V7.83h.06c0-.37-.43-.37-.61-.6l0-.06a2.51,2.51,0,0,0-.24-.26.2.2,0,0,1,.12,0h0l.32.21,0-.06c.08,0,.09,0,.38.2l.28.24h-.12c.39.35.43.38.45.51l-.12,0,0,0a4.14,4.14,0,0,0,.95,1.26l.11.11a7.2,7.2,0,0,0,1.16.74h0a.9.9,0,0,0,0-.13c.09,0,.17,0,.25,0l0-.11a1,1,0,0,1,.33,0V9.83h.05A2.74,2.74,0,0,0,58,10l.19,0,.09.08,0,.05h-.18c0,.1,0,.1.16.42-.16,0-.26-.15-.4-.2l0,.05a.56.56,0,0,1-.18,0l0,0v.06l-.12,0-.05,0a2.22,2.22,0,0,0,.13.23l0,0-.07,0h0l-.1-.07-.06-.08h-.09l0,0v0l.06.07h0l0,0,.06,0h0l.08.06a.32.32,0,0,0-.18.09.51.51,0,0,0,.44.26.31.31,0,0,0,0-.2c.31,0,.74.53.74.54s-.06.12.06.29,0,.07,0,.07,0,0-.4-.31h0L58,11.39h-.1a3.68,3.68,0,0,0,.83,1.47l0,.09a2,2,0,0,0-.5-.11c0,.21.24.29.35.45l0,0c-.2-.13-.39-.28-.58-.41,0,0,0,0-.25.42h-.22c-.24.28-.49-.16-.58-.3h-.13l0,.1h-.11l-.17,0h-.11l.1.2c0,.07-.05.07-.1.06s-.18,0-.32-.25h-.2l-.09-.15-.07-.09a.24.24,0,0,1,.23-.07c.14,0,.26.13.4.17l.07-.08c-.11-.24-.37-.68-.37-.69a.24.24,0,0,0-.16-.07l-.2.07,0,.1c0,.07,0,.07,0,.07a.33.33,0,0,1-.18-.34l-.1-.15c-.46.06-.35-.59-.71-.68,0,0,0,0,0,.31l-.18.09a.69.69,0,0,0,.12.16l0,.06s0,.07,0,.1l-.09.07c0,.11,0,.11.63.8l0,.09.08.2c.09.12.21.22.3.34l.11.2h-.1l-.23,0h-.08a1.32,1.32,0,0,0-.41,0v.1a.56.56,0,0,0-.17.13c0,.18,0,.18-.06.28L54.61,14h-.26a.28.28,0,0,0,0,.17l.19.1.14.3c-.19,0-.23,0-.43.41H54a3,3,0,0,0,.19.56.85.85,0,0,0-.41,0c0,.1.06.19.1.29H53.6c-.06,0-.06,0-.29-.06s-.11-.09-.12-.12a.36.36,0,0,0-.19-.09.63.63,0,0,0,.05.3l.1,0,.08.23.08.1,0,.12a1.08,1.08,0,0,1-.8-.21c-.41.16-.41.16-.44.21l0,.1c.09.07.12.07.15.07a.53.53,0,0,0,.45.21h.12c.21.15.4.31.61.47a4.59,4.59,0,0,1,.2.54c.39.45,1,1.2.63,1.63,0,0,0,.07,0,.1-.2.15-.2.15-.3.17H53.9a3.71,3.71,0,0,1-.86-.35l-.87,0c-.37-.05-.37-.05-.43-.09s-.11-.05-.13-.05l-.08.06,0,.11a1,1,0,0,1-.48.07l0,.1c.28.33.17.83.48,1.15,0,.22.09.43.13.64,0,0,0,.07,0,.1-.32.32-.16.59,0,.84l.07.08a.67.67,0,0,1,0,.16l0,.11c-.08.14-.08.18,0,.51a.77.77,0,0,0,.29,0c.28-.06.53.14.8.09,0,0,0,0,.4.23.11.13.17.31.32.41l0-.12-.1,0a13.49,13.49,0,0,1,2.24-1.11l-.08-.36c-.29-.45-.29-.45-.2-.93,0-.06,0-.15,0-.21h.21a.6.6,0,0,0,.09-.19.57.57,0,0,1,.19-.05l0-.1.51,0a.55.55,0,0,0,0-.32l0-.11a1.79,1.79,0,0,1-.17-.62c.16-.1.16-.1.51,0h0c.35.18.35.18.42.2h.3a1.18,1.18,0,0,1,0-.42h.17c.07,0,.24,0,.33-.31.57.16.69.79,1.14,1.08a.52.52,0,0,1,.25.27c.74.52,2.11,1.49,2.26,2.32-.31.06-.31.06-.34.22a2.67,2.67,0,0,1-.83,0l.05.13c.28.16.43.47.75.59l.43,0-.11-.42c.11-.08.16-.21.29-.28s0-.29-.06-.43a.41.41,0,0,1,.17-.1.37.37,0,0,0,0-.19,1.35,1.35,0,0,1-.07-.19h-.22a.21.21,0,0,1-.11-.14l0-.1a.36.36,0,0,1,.26,0,.73.73,0,0,1,.34.26c0-.23-.13-.39-.2-.59a2,2,0,0,1-.86-.68c-.29,0-.44-.29-.7-.37-.1-.32-.41-.47-.59-.73l-.08,0c-.21-.37-.21-.37-.45-.37a1.57,1.57,0,0,1-.12-.27l0-.1c0-.09,0-.1,0-.12-.18-.33-.18-.33-.18-.36.34-.05,1.67,1.3,1.68,1.32a.44.44,0,0,0,.37.2l.08.12c.23.29.64.36.86.67.34.49.43,1.09.74,1.6l.2,0a1.64,1.64,0,0,1,.21.47h-.16l0-.1-.1,0c0,.18.15.36.4.61l.07-.13c.3.15.29.5.46.73a.47.47,0,0,0,.19.05h.1c0-.26,0-.26,0-.3l0-.13a.46.46,0,0,1-.06-.2l.08-.06a1.11,1.11,0,0,1,.14.14h.12c0-.14,0-.14-.06-.43h.1l0-.1c-.16-.24-.17-.24-.3-.27a1.35,1.35,0,0,1,.1.33c-.08,0-.25,0-.86-1l-.06-.18s0-.07,0-.1l.08.06c.16.16.16.16.25.18H64c0-.12,0-.12-.12-.26a1,1,0,0,0,0-.11c.27-.16.41.15.63.19.14.23.14.23.17.26a.58.58,0,0,1,.11.19l-.07.07c.09.3.4.48.45.81a1,1,0,0,1,.07.21l0,.11a2.24,2.24,0,0,0,.17.3l0,.06,0,0,0,.06.05.06,0,0a.53.53,0,0,1,.06.24v.13a1.66,1.66,0,0,0,.12.32l0,.06,0,0a.51.51,0,0,0,0-.18l0-.14-.07-.22,0-.1c0-.06,0-.06,0-.06h0l0,0,0,.05,0,0,.14.18,0,.07,0,.06,0,0h0a.27.27,0,0,1,.15.07l.09,0,0,0,0,0,0-.05v-.06a.54.54,0,0,1-.07-.29v-.05l0-.05a.31.31,0,0,1,.18.07l.11.16.14.17,0,.06,0,0,0,0,0,0,.32,0-.06-.2,0-.07a1.75,1.75,0,0,1-.07-.22l.06,0h.05s0,0,.19.2l.07,0,0,0v-.09l0,0a.9.9,0,0,0,.08.14l0,.05a2.07,2.07,0,0,1,.09.36,2.14,2.14,0,0,0,.16.62l0,.06a.6.6,0,0,1,.09.33v.09a1.53,1.53,0,0,1,0,.2v.06c0,.33,0,.33,0,.37v.15c.92.17,1.62.28,2.09.4a18.66,18.66,0,0,0-2.08-.34,3.41,3.41,0,0,1,0,.67v.06l0,0h0a.2.2,0,0,0-.11,0h-.05l0,0,0,0,0-.06,0-.07s-.06,0-.07,0a.73.73,0,0,1-.23-.09h-.06v.07c.14.13.14.13.23.15a.24.24,0,0,1,.08.14v.07l.08.16a1.67,1.67,0,0,1,0,.17v.13a5,5,0,0,0,.32.81,1.5,1.5,0,0,0,.23.43l.07,0h.06c0-.09,0-.18,0-.27l.05.09a8.38,8.38,0,0,1,.7,1.88v.09A8.52,8.52,0,0,0,70,33.13c.08.35-.06.72.11,1.06a4,4,0,0,1,.3.82l0,.09.37,2.43c0,.4,0,.75-.06,1.11a1.56,1.56,0,0,0,.12.54h.13c.07-.16.07-.34.16-.49a.27.27,0,0,1,.18,0h0v.06l.07-.2a.74.74,0,0,1,.3-.56c0-.06,0-.15,0-.22s.18-.73.18-.73l.07.06c0-.43,0-.68,0-.68l0,0c0-.18,0-.35,0-.53,0-1.16-.09-2.24-.2-3.32v.07C71.8,32.49,71.78,32.31,71.75,32.13Zm-1.26-6-.1-.36.1.34.07.22ZM72,33.9c0-.08,0-.17,0-.25v.17h0v.07Zm0-.44v0ZM24.65,2.23l-.35.11,0,0,.56-.19Zm3.18-.71L28,1.46h-.11l-.25.08h0ZM24,2.63l.38-.13.14,0h.24l.31-.11.54-.2.15-.07h-.05l-.23.08.06,0L25.8,2l.25-.09.27-.1h-.06l-.2.06-.12,0-.2.07a5.22,5.22,0,0,1-.54.2v0a.81.81,0,0,1-.27.08h-.09L25,2.24l.35-.14.09,0h-.05L25.52,2h0L25.31,2l-.41.13-.3.09-.33.11L24,2.49H24l0,0,.12,0,.19-.05v0h.07l-.24.07h-.08l-.21.07-.22.09-.08,0h.11ZM20.15,4.09l.3-.13c.49-.24,1.26-.55,1.27-.56l.51-.18.27-.09L22.81,3l.3-.16h0l-.28.09.11-.06.14-.07h0l-.18.05-.26.1-.47.2-.73.31-1,.44-.15.1-.6.32.41-.19Zm3.39-1.15-.09,0L23.25,3l0,0Zm2.31-1.05h0l.26-.08-.11,0h0ZM19,5h.12l-.37.26-.1.11.17,0,.19,0,.32-.14.24-.08.35-.15.21-.09L20,4.92l.13,0-.09.18h.13l.18,0,.33-.19.12-.15.11,0,.2,0,.22-.13.09-.13,0-.13L21.7,4l.4-.22.15-.13.51-.27L23,3.25l.08-.09H23l-.4.19-.26.14L22,3.69l-.2.09h0l.11-.08.27-.14.21-.12.3-.18h-.06l-.25.13-.18.1H22.1l-.2.1-.13,0L22,3.5l.29-.13h0l0-.05-.1,0-.28.13v0l.19-.08.33-.16,0,0h-.08l-.3.12-.18.06-.17.05-.29.12-.34.17-.32.13-.2.1h.05l-.16.1L20.67,4l.14,0L20.65,4l-.21.07-.18.06L20,4.27l-.11.11H20l.18,0h.11c-.09.1-.09.1-.31.2h-.18l-.17,0-.36.15L18.88,5Zm8.08-3.29.36-.13.16-.06a6.57,6.57,0,0,0-.69.23Zm-2.54.56.19-.06L25,2.12H25L25.35,2l.25-.07L25.28,2l.14,0,.21-.06.52-.16.37-.1.07,0-.3.08h-.07S25.16,2,25.15,2h0l-.23.07-.31.11-.14.06.3-.1ZM27,1.56l-.44.13h0l.14,0h.11L27,1.6l.2-.06h.06l.26-.06h-.13l-.15,0Zm.24-.07.12,0h-.06l-.26.07-.16,0h0Zm-2.05,13.8c-.1,0-.11,0-.16,0a.33.33,0,0,1-.19-.17c0-.08-.07-.1-.12-.1a.6.6,0,0,1-.14,0l-.21.09a.63.63,0,0,1,.16.09s0,.12.08.17l0,0,.13.12s.06.09.1.13a.19.19,0,0,0,.09.06c.05,0,.14,0,.45-.32h0c-.05,0-.09-.07-.15-.09ZM21.19,8a1.57,1.57,0,0,0-.31.13l-.16.07s0,.08,0,.1h.12a1.46,1.46,0,0,0,.49-.27l0,0,.08-.14L21.3,8Zm.77.49.1-.14.15-.25L22,8.1l-.35.15-.17.36h.32ZM25.21,5.6l.31-.21.09-.22-.43,0a3.78,3.78,0,0,0-.42.25l-.06.19.21,0Zm-4.65,28.3h-.22c-.11,0-.21-.11-.32-.12h-.11c-.1,0-.13.16-.23.19h-.37c-.16,0-.2-.18-.34-.21s-.26-.23-.45-.24l-.74,0a1.68,1.68,0,0,0-.4.07c0,.25,0,.5,0,.75.2.26.34.41.41.43H18c.19,0,.19,0,.34-.2s.34-.13.34-.13.24.07.36.06.24-.07.36-.06a2.88,2.88,0,0,0,.83-.11.21.21,0,0,1,.22,0,3.11,3.11,0,0,0,.55.09h.22c.08,0,.13-.08.2-.11l0,0c-.06-.06-.18,0-.22-.12s0-.24,0-.36A2.24,2.24,0,0,1,20.56,33.89ZM18.12,5l.19-.1.27-.14,0,0-.28.14-.39.2-.05,0h0l-.37.22.42-.24Zm-.74.41.1-.06h0ZM15,40.19l.09.3.22,0,.09-.4-.27-.36-.69,0-.45,0-.65,0L13,39.39l-.44-.57v-.46c0-.2,0-.41,0-.62l.11-.78c0-.18,0-.35,0-.53l-.21-.4-.4-.27-.59.08L11,35.73l-.45.27-.29-.27.27-.32v-.25c0-.1,0-.21,0-.31l.11-.35.16-.56c0-.21,0-.41,0-.62l.27-.25.07-.46L11,32.42l-.64.08-.4.1L9.76,33l-.19.66-.2.6L9,34.37l-.45.21-.46.12-.2-.43L7.57,34l-.11-.49-.22-.63-.06-1.09,0-.79.25-.61.18-.69L7.55,29,8,28.26l.28,0,.33-.36.35-.42.38.07.26.13.26-.16.14.37h.36l.29,0v-.29l.18-.47.45,0,.32-.07.57.06.17.4h.2l.17-.24.18-.06.23.34.21.43c0,.17,0,.34-.07.5l.12.29,0,.32.18.23.07.35.24.17,0,.39.23.09.17-.27.15-.43L14.3,29l0-.76L14,27.57c0-.29.09-.58.18-1l.21-.46.36-.64.42-.21.55-.49.51-.37.46-.21.14-.36.37-.23-.16-.6-.15-.27.16-.33-.12-.3.37-.2.18.43.26-.44.27-.38.26-.25.41-.8h.63l.47-.27.49-.06,0-.31.14-.65.45-.49h.38l.19-.28.5,0,.53-.28.38-.38c.86,0,.86,0,1.14.14l-.17.13a5.29,5.29,0,0,0-.69,0c-.44.29-.44.29-.46.65l.25.12.36-.26.25-.16.45-.13.5-.23.47-.11.44-.43.41-.3.12-.34-.5.12-.44.52-.56,0L24,17.3l-.37-.37-.08-.63.48-.32.11-.5-.57,0-.68.2-.81.42-.87.69-.64.4.32-.37.43-.4.26-.19-.47-.14h.65l.26-.34.46-.31.44,0,.3-.38.41-.14h.58l1.06,0,.52.09.44,0,.5-.31.48-.41.72-.07.39-.14.23-.18-.18-.18.19-.18.1-.38-.48-.07,0-.22h-.53l-.48.22-.32.18L26.63,13l.17-.27.52-.16.61-.13.31-.22-.37,0-.32-.17L27.12,12l-.21-.25-.25-.25-.05-.23.21,0,.12-.17-.17-.38-.2-.42-.19-.72,0-.32-.53.43-.16.37-.44.14-.35.26h-.35l0-.24-.15-.18L24,10l.3-.41.28-.53.13-.28h-.38l-.19-.2-.1-.29L23.8,8l-.26.15h-.38L23.07,8h-.43l-.32.2,0,.29-.33.39-.12.26-.08.36h-.24l-.2.35-.27.2.12.15.16.25-.17.47-.29.54-.44.39-.49.31-.5.08,0,.47-.3.62,0,.36-.21.29-.38.37-.5.08L18,14l-.1-.44.19-.38.19-.53.29-.44-.5-.07h-.38L17.6,12l-.39-.13,0-.25L17,11.33l-.2-.27-.62.18.08-.26.26-.6-.11-.15,0-.23.65-.72.68-.54.64-.47.43-.17.44-.24.14-.24-.24-.09L19,7.37l.34.07.25.11.22-.06.29-.26.18.12.23-.06.21-.2.2-.09.32-.27-.19,0-.24,0,.05-.14-.13-.15h.19l.21.1.13.09.32-.11.4-.24,0-.18h.22l0,.17-.3.19-.46.36L21,7.23l-.34.11-.12.2h.24c-.06.06-.11.13,0,.21L21,7.7l.31-.24h.33l.16,0,.1.1h.28l.24-.26-.22-.06.15-.32-.29,0,0-.24-.17-.06L22,6.44l.16,0,.22-.13.11-.14h.25L23.05,6l.43-.21.24-.17.06-.18.2-.29.25,0,.29-.22.08-.21-.08-.1-.06-.16h.29l.16-.11.18,0,0,.11.26,0,.29-.06,0-.19.17,0-.06.22.2,0-.13.21.13,0L26,4.78l.11.08L26,5.08l.15.08v.22L26,5.64l-.53.3-.49.3-.09.29-.5.07-.18-.06h-.25l-.51.25-.22.26.32.06.32,0L24,6.95l.2-.09.16,0L24.7,7l.11.37-.05.2.07.26h.34l.16.35h.54l.28.16.14-.22-.34-.44-.13-.19V7.32l.26.18.46.32.25.19L27,7.7l.33-.28-.22-.17.17-.42-.33-.14-.15-.51L27,6l.24-.13.34.46.06.31.26,0,.28-.36.42-.13.13-.14H29l.18-.16.1-.23h-.45l.07-.12-.15-.19-.17,0-.2-.11h-.21l.05-.16,0-.14h-.48l.19-.24h.24l.21-.11-.25-.08.12-.1.17,0,0-.16-.18-.06L28.41,4l-.15-.1L28,4l.07-.11h-.2l-.06,0,.29-.11-.15-.07-.36.08,0-.19.1-.11h-.15l.14-.13-.14-.09h-.32l-.18.1-.2,0-.11,0-.23.13-.17,0,.22-.16.3-.15L27,2.93l.21-.17H27l-.32.13-.19,0L26.21,3l-.31.18-.19.19-.27.13-.21.25-.17,0,.14-.21.38-.28.27-.18.43-.19.42-.15h-.22l-.3,0L25.58,3l-.67.32-.67.42.14,0h.14L24.36,4l-.13,0L24,4l-.13.2h.23l.18-.06,0,.13.15.11-.27.07-.25.19,0,.13-.67.39-.43.28-.42.23-.05-.09.28-.34.35-.21.12-.3L22.48,5l.28-.42,0-.05.33-.21.3-.24-.08,0,.28-.19.15-.2h-.19l-.24.12-.11,0L22.76,4l-.21.17-.23.13-.15.22,0,.14-.35.21-.12,0-.28.24.2,0L22,4.9l-.34.26-.7.28-.46.39,0-.2.41-.27h-.14l.32-.25h.13l.46-.35V4.56l-.43.25L21,4.93l-.12.26-.35.17-.33.21-.53.06V5.48l-.11,0,.11-.2-.37.17-.48.2-.31.25-.59.41.53-.47.06-.16-.34.11-.29,0,.2-.14.32-.13.2-.23-.14,0L18.56,5l.25-.17,0,0-.09,0-.3.16-.13.05.57-.34L18.23,5V5l.68-.39L19,4.54l-.5.26L18.16,5,18,5l-.28.15-.27.15c-.93.56-2,1.29-2.87,1.84a34.22,34.22,0,0,0-4.28,3.58l-.47.47.08-.08-.16.17-.26.28-.08.1L9.18,12l-.12.17-.24.26-.06.09v0l-.26.31-.25.32-.3.37-.27.36,0,0-.32.43-.23.39L7,15l-.08.21v.25l-.15.24L6.64,16l-.08.25-.31.57L6,17.32,6.06,17l.16-.37.14-.24.06-.22v-.09l.25-.38-.07,0,.07-.18,0-.09v-.06l-.09.06-.17.3L6.37,16l-.11.25-.14.4-.23.45-.3.58-.28.48-.38.66-.39.74-.15.19-.25.5L4,20.73l-.25.51-.16.4L3.45,22l-.22.52-.09.42,0,.34-.2.74v.29l-.1.39,0,.44.15,0,0,.29.11.23,0,.39L3,26.48l0,.48-.1.8.05.34L3,28.5v.29l-.18.28,0,.32.12.31.16.34.08.38-.07.33V31l.16.16.14.35.1.3,0,.36.12-.13.07-.4,0-.45L3.49,31l0-.39-.14-.31v-1L3.28,29l0-.47-.12-.13,0-.58-.06-.48.13-.64.14,0,.14.18,0,.34-.11.55.07.71L3.7,29l.15.4.09.41,0,.47.2.28.12.44.09.47.24.65.07.58.15.26-.18.23-.07.37.32.54.28.45.36.2.39.42.47.35.54.44.45.2.3,0,.09-.25.34-.08.38.29.44.51.25.43h.5l.21.12.24.46.47.2v-.31l.26.18c.83,1.47.83,1.47.78,1.76l.17.24.19-.13.28.17c.58.65.58.65.83.62l.73.43.39.2-.07-.48.16-.31ZM11.05,10.09l.77-.7C11.54,9.63,11.31,9.84,11.05,10.09Zm8-4.69.06,0,.3-.13.19-.05.29-.19-.36.12Z"/></g></g></svg>